Coordinates
version=1
nRows=16
nColumns=42
inDegrees=yes

Units are S.I. units (second, meters, Newtons, ...)
If the header above contains a line with 'inDegrees', this indicates whether rotational values are in degrees (yes) or radians (no).

endheader
time	pelvis_tilt	pelvis_list	pelvis_rotation	pelvis_tx	pelvis_ty	pelvis_tz	hip_flexion_r	hip_adduction_r	hip_rotation_r	knee_angle_r	knee_adduction_r	knee_angle_r_beta	ankle_angle_r	subtalar_angle_r	mtp_angle_r	hip_flexion_l	hip_adduction_l	hip_rotation_l	knee_angle_l	knee_adduction_l	knee_angle_l_beta	ankle_angle_l	subtalar_angle_l	mtp_angle_l	lumbar_extension	lumbar_bending	lumbar_rotation	arm_flex_r	arm_add_r	arm_rot_r	elbow_flex_r	pro_sup_r	wrist_flex_r	wrist_dev_r	arm_flex_l	arm_add_l	arm_rot_l	elbow_flex_l	pro_sup_l	wrist_flex_l	wrist_dev_l
      0.00000000	      3.20224279	      0.94711755	     -5.90565770	     -2.82174478	      0.81892090	      0.11628644	     -7.00001758	      1.13410838	    -38.63238640	     40.40657089	    -28.97957146	      0.70522770	     12.87062914	     35.74952935	     -9.48748285	     35.92961609	      4.98324284	    -14.23293035	     37.62579253	    -12.88994898	      0.65669396	      8.04631751	     -0.71078465	     -9.48748285	    -21.88008730	     -4.08533747	      9.12822787	     14.81401715	    -17.05063685	      6.94451723	     52.22079233	     90.00000001	      0.00000000	      0.00000000	     -8.89080578	    -11.50937989	     19.31182931	     27.05111534	     90.00000001	      0.00000000	      0.00000000
      0.01000000	      3.38450944	      1.51712866	     -5.59249254	     -2.80782834	      0.82040478	      0.11516493	     -6.43150416	      0.18465513	    -38.86205692	     42.70735267	    -29.76490691	      0.74538392	      8.69941902	     34.45405717	     -9.46404280	     35.26271330	      5.88134164	    -14.14165817	     38.64330378	    -12.83444835	      0.67445288	      9.08463578	     -1.06607220	     -9.46404280	    -22.06237501	     -4.68137008	      8.71852126	     14.33244938	    -16.87570751	      6.93581218	     51.32895380	     90.00000001	      0.00000000	      0.00000000	     -8.05458095	    -11.73137031	     19.34891955	     27.14942117	     90.00000001	      0.00000000	      0.00000000
      0.02000000	      3.37650903	      2.04157295	     -5.22892861	     -2.79449020	      0.82206907	      0.11388657	     -5.33607166	     -0.57886497	    -38.92324182	     45.34097861	    -30.65841632	      0.79134936	      4.07317335	     31.24020139	     -9.43013700	     34.56437997	      6.85648428	    -13.86741237	     39.12421700	    -12.83988456	      0.68284640	     10.01511034	     -1.55230145	     -9.43013700	    -22.08153850	     -5.14937768	      8.32225425	     13.88892581	    -16.67202685	      6.91765378	     50.15161706	     90.00000001	      0.00000000	      0.00000000	     -7.10167925	    -11.93029080	     19.41109067	     27.27242812	     90.00000001	      0.00000000	      0.00000000
      0.03000000	      3.30293943	      2.31853124	     -4.63624042	     -2.78176523	      0.82401696	      0.11249042	     -3.94047792	     -0.97203482	    -38.81857898	     48.48545272	    -31.24646167	      0.84623079	      0.38118111	     25.16097682	     -9.36317508	     33.86236909	      7.57733153	    -13.41371489	     39.47440479	    -12.71676212	      0.68895833	     10.57242139	     -2.01069074	     -9.36317508	    -22.13158548	     -5.27144211	      7.79535654	     13.55099783	    -16.47644207	      6.93248749	     48.92577252	     90.00000001	      0.00000000	      0.00000000	     -6.00506462	    -12.11980310	     19.38637748	     27.48150326	     90.00000001	      0.00000000	      0.00000000
      0.04000000	      3.18402511	      2.62101950	     -4.16083647	     -2.76906696	      0.82608788	      0.11116365	     -2.28490608	     -1.50637896	    -38.78618738	     51.70369803	    -31.86544817	      0.90239977	     -2.85192141	     20.09006550	     -9.29400980	     33.05547930	      8.26860033	    -13.28927459	     39.52594363	    -12.76056923	      0.68985786	     11.51738684	     -1.94212365	     -9.29400980	    -22.08377191	     -5.41165437	      7.35121939	     13.16933602	    -16.33206527	      7.10262796	     47.64729689	     90.00000001	      0.00000000	      0.00000000	     -4.95164472	    -12.25897261	     19.12763341	     27.79949532	     90.00000001	      0.00000000	      0.00000000
      0.05000000	      3.03741897	      2.80709210	     -3.71326339	     -2.75656113	      0.82836140	      0.10993948	     -0.42007396	     -1.90151238	    -38.71431706	     54.96943550	    -32.39157050	      0.95939764	     -5.37734232	     14.84712447	     -9.21928771	     32.18120120	      8.79424530	    -13.34494916	     39.35912523	    -12.90835701	      0.68694633	     12.60236866	     -1.41594214	     -9.21928771	    -22.01138104	     -5.40278773	      6.95002069	     12.80388126	    -16.23096425	      7.32421079	     46.36590790	     90.00000001	      0.00000000	      0.00000000	     -3.88347746	    -12.33934315	     18.63632081	     28.21498232	     90.00000001	      0.00000000	      0.00000000
      0.06000000	      2.88696932	      2.94275763	     -3.28589963	     -2.74414387	      0.83080674	      0.10881915	      1.58590458	     -2.26715527	    -38.67435323	     58.20325893	    -32.81193740	      1.01583850	     -7.02920533	      9.71574921	     -9.15084305	     31.23644787	      9.23858996	    -13.47109540	     39.05084244	    -13.10405819	      0.68156578	     13.65077800	     -0.59005190	     -9.15084305	    -21.92335040	     -5.32618437	      6.55640851	     12.44948292	    -16.12805386	      7.58982472	     45.05591286	     90.00000001	      0.00000000	      0.00000000	     -2.82027818	    -12.41486049	     17.99530527	     28.73287473	     90.00000001	      0.00000000	      0.00000000
      0.07000000	      2.72753705	      2.93226177	     -2.88674242	     -2.73186451	      0.83342472	      0.10787174	      3.70935445	     -2.41590770	    -38.48619743	     61.28899393	    -33.00810009	      1.06969474	     -8.20602880	      4.48243068	     -9.05106077	     30.24705815	      9.47523294	    -13.58062728	     38.66305455	    -13.28029659	      0.67479760	     14.81708615	      0.34401242	     -9.05106077	    -21.82959771	     -5.08584358	      6.21922460	     12.06166685	    -16.06826229	      7.85338275	     43.82949095	     90.00000001	      0.00000000	      0.00000000	     -1.75357971	    -12.41953373	     17.11279570	     29.31777433	     90.00000001	      0.00000000	      0.00000000
      0.08000000	      2.56219742	      2.92398674	     -2.49142205	     -2.71967739	      0.83612468	      0.10692242	      5.93207110	     -2.60887287	    -38.29797867	     64.19916506	    -33.02949212	      1.12048681	     -8.51634652	     -0.24591271	     -8.96924564	     29.20107123	      9.71968549	    -13.61494317	     38.14076414	    -13.43138351	      0.66568191	     15.70321141	      1.32140919	     -8.96924564	    -21.72167944	     -4.82589489	      5.83234778	     11.69163329	    -15.98541841	      8.10391618	     42.61620146	     90.00000001	      0.00000000	      0.00000000	     -0.73111618	    -12.47331625	     16.28396489	     30.06587946	     90.00000001	      0.00000000	      0.00000000
      0.09000000	      2.54095349	      2.99061400	     -2.14529519	     -2.70732162	      0.83913140	      0.10609791	      7.98346029	     -2.93392333	    -38.44567583	     66.56348527	    -33.28154767	      1.16175198	     -7.57937878	     -2.65378603	     -8.93601990	     27.81129903	     10.06466315	    -13.38613844	     37.37772441	    -13.41538316	      0.65236436	     16.87288704	      1.89147967	     -8.93601990	    -21.73654611	     -4.65944270	      5.47520416	     11.25578195	    -15.91593805	      8.28453304	     41.49738196	     90.00000001	      0.00000000	      0.00000000	      0.32401973	    -12.65061971	     15.84523097	     30.81389608	     90.00000001	      0.00000000	      0.00000000
      0.10000000	      2.27638556	      2.77415934	     -1.74148586	     -2.69578811	      0.84173709	      0.10537612	     10.50598194	     -2.75554035	    -37.52188591	     69.07497902	    -32.39832764	      1.20558581	     -8.28348098	     -8.56652384	     -8.84389305	     26.95089848	     10.00239712	    -13.39771247	     36.92853191	    -13.56314194	      0.64452447	     17.56329051	      3.02378217	     -8.84389305	    -21.57729601	     -4.16403668	      5.07181359	     10.87678973	    -15.85958323	      8.48841638	     40.51333128	     90.00000001	      0.00000000	      0.00000000	      1.36722253	    -12.62230395	     14.62523426	     31.71647903	     90.00000001	      0.00000000	      0.00000000
      0.11000000	      2.31751553	      2.60286067	     -1.34357176	     -2.68382056	      0.84489002	      0.10477684	     12.50447200	     -2.66962094	    -37.59458104	     70.48729551	    -32.41457913	      1.23023539	     -7.12584544	     -9.58222310	     -8.82190380	     25.52478516	     10.06500189	    -13.10579109	     36.19594415	    -13.62510829	      0.63173840	     18.21874271	      3.38077537	     -8.82190380	    -21.70778315	     -3.73043943	      4.72425861	     10.33587661	    -15.86416738	      8.57042878	     39.80358004	     90.00000001	      0.00000000	      0.00000000	      2.50527226	    -12.79790699	     14.38210118	     32.58611620	     90.00000001	      0.00000000	      0.00000000
      0.12000000	      1.95361456	      2.61669656	     -0.94221405	     -2.67239560	      0.84702166	      0.10398467	     15.16369430	     -2.82556867	    -36.17590481	     72.40444910	    -30.92174805	      1.26369603	     -6.98660533	    -13.71917048	     -8.73221154	     24.63928119	     10.28155186	    -12.98821828	     35.42246148	    -13.67712156	      0.61823858	     19.06239201	      4.62254295	     -8.73221154	    -21.38458134	     -3.47727176	      4.19356068	      9.90005839	    -15.74662196	      8.66874604	     38.88495776	     90.00000001	      0.00000000	      0.00000000	      3.41822082	    -13.01203288	     13.55417094	     33.69932461	     90.00000001	      0.00000000	      0.00000000
      0.13000000	      1.83797215	      2.43121560	     -0.46132413	     -2.66063610	      0.84956880	      0.10331708	     17.30707030	     -2.69944891	    -35.97540525	     73.07887455	    -30.53170445	      1.27546697	     -5.82264706	    -14.16971568	     -8.71102073	     23.39384183	     10.35347879	    -12.65805297	     34.62698004	    -13.80686811	      0.60435481	     19.61935150	      5.01233535	     -8.71102073	    -21.31103084	     -2.99612466	      3.75816235	      9.25294437	    -15.76769575	      8.70122265	     38.36544655	     90.00000001	      0.00000000	      0.00000000	      4.47349722	    -13.27014693	     13.39751884	     34.68009793	     90.00000001	      0.00000000	      0.00000000
      0.14000000	      1.59013332	      2.49935483	      0.12319574	     -2.64896595	      0.85150385	      0.10251115	     19.59839188	     -3.03601638	    -35.12889741	     73.81975649	    -29.32950914	      1.28839780	     -4.71307440	    -15.15915246	     -8.67430614	     22.30362003	     10.66522031	    -12.31653591	     33.77461611	    -13.83326923	      0.58947825	     20.40796529	      6.14830535	     -8.67430614	    -21.06655098	     -2.81508394	      3.05299897	      8.64172396	    -15.60550330	      8.67554662	     37.72964265	     90.00000001	      0.00000000	      0.00000000	      5.33443804	    -13.73510972	     13.26259448	     35.99885440	     90.00000001	      0.00000000	      0.00000000
      0.15000000	      1.30719803	      2.37812279	      0.51126043	     -2.63731739	      0.85316584	      0.10215340	     21.86438934	     -2.93157912	    -33.92724192	     73.98691768	    -28.03156136	      1.29131532	     -3.88574853	    -16.00492078	     -8.59559858	     21.37187065	     10.62445766	    -12.85624860	     32.94950202	    -14.24887266	      0.57507730	     21.27759756	      8.07573529	     -8.59559858	    -20.75858887	     -2.47380088	      2.66009540	      7.91523009	    -15.56187985	      8.49789436	     37.28142961	     90.00000001	      0.00000000	      0.00000000	      6.26225458	    -14.15651288	     13.39145132	     37.19075115	     90.00000001	      0.00000000	      0.00000000
